<svg xmlns="http://www.w3.org/2000/svg" xmlns:xlink="http://www.w3.org/1999/xlink" width="60" zoomAndPan="magnify" viewBox="0 0 45 44.999999" height="60" preserveAspectRatio="xMidYMid meet" version="1.0"><defs><clipPath id="b3a68003eb"><path d="M 0.472656 0.472656 L 44.527344 0.472656 L 44.527344 44.527344 L 0.472656 44.527344 Z M 0.472656 0.472656 " clip-rule="nonzero"/></clipPath><clipPath id="2ceafd3b87"><path d="M 22.5 0.472656 C 10.335938 0.472656 0.472656 10.335938 0.472656 22.5 C 0.472656 34.664062 10.335938 44.527344 22.5 44.527344 C 34.664062 44.527344 44.527344 34.664062 44.527344 22.5 C 44.527344 10.335938 34.664062 0.472656 22.5 0.472656 Z M 22.5 0.472656 " clip-rule="nonzero"/></clipPath><clipPath id="96070d1b18"><path d="M 11.058594 19 L 34 19 L 34 34 L 11.058594 34 Z M 11.058594 19 " clip-rule="nonzero"/></clipPath><clipPath id="c688519ec3"><path d="M 11.058594 11.058594 L 34 11.058594 L 34 19 L 11.058594 19 Z M 11.058594 11.058594 " clip-rule="nonzero"/></clipPath></defs><g clip-path="url(#b3a68003eb)"><g clip-path="url(#2ceafd3b87)"><path fill="#ffffff" d="M 0.472656 0.472656 L 44.527344 0.472656 L 44.527344 44.527344 L 0.472656 44.527344 Z M 0.472656 0.472656 " fill-opacity="1" fill-rule="nonzero"/></g></g><g clip-path="url(#96070d1b18)"><path fill="#151515" d="M 16.964844 19.84375 L 11.058594 19.84375 L 11.058594 27.46875 C 11.058594 31.039062 13.953125 33.933594 17.523438 33.933594 L 27.46875 33.933594 C 31.039062 33.933594 33.933594 31.039062 33.933594 27.46875 L 33.933594 19.84375 L 28.027344 19.84375 C 28.414062 20.644531 28.628906 21.542969 28.628906 22.496094 C 28.628906 25.878906 25.882812 28.628906 22.496094 28.628906 C 19.113281 28.628906 16.363281 25.878906 16.363281 22.496094 C 16.363281 21.542969 16.582031 20.644531 16.964844 19.84375 Z M 16.964844 19.84375 " fill-opacity="1" fill-rule="evenodd"/></g><path fill="#000000" d="M 26.972656 22.496094 C 26.972656 22.789062 26.945312 23.078125 26.886719 23.367188 C 26.828125 23.65625 26.746094 23.9375 26.632812 24.207031 C 26.519531 24.480469 26.382812 24.738281 26.21875 24.980469 C 26.054688 25.226562 25.871094 25.453125 25.660156 25.660156 C 25.453125 25.867188 25.226562 26.050781 24.984375 26.214844 C 24.738281 26.378906 24.480469 26.515625 24.210938 26.628906 C 23.9375 26.742188 23.660156 26.828125 23.371094 26.882812 C 23.082031 26.941406 22.789062 26.96875 22.496094 26.96875 C 22.203125 26.96875 21.910156 26.941406 21.625 26.882812 C 21.335938 26.828125 21.054688 26.742188 20.785156 26.628906 C 20.511719 26.515625 20.253906 26.378906 20.011719 26.214844 C 19.765625 26.050781 19.539062 25.867188 19.332031 25.660156 C 19.125 25.453125 18.9375 25.226562 18.777344 24.980469 C 18.613281 24.738281 18.472656 24.480469 18.363281 24.207031 C 18.25 23.9375 18.164062 23.65625 18.105469 23.367188 C 18.050781 23.078125 18.019531 22.789062 18.019531 22.496094 C 18.019531 22.199219 18.050781 21.910156 18.105469 21.621094 C 18.164062 21.332031 18.25 21.054688 18.363281 20.78125 C 18.472656 20.511719 18.613281 20.253906 18.777344 20.007812 C 18.9375 19.761719 19.125 19.539062 19.332031 19.328125 C 19.539062 19.121094 19.765625 18.9375 20.011719 18.773438 C 20.253906 18.609375 20.511719 18.472656 20.785156 18.359375 C 21.054688 18.246094 21.335938 18.164062 21.625 18.105469 C 21.910156 18.046875 22.203125 18.019531 22.496094 18.019531 C 22.789062 18.019531 23.082031 18.046875 23.371094 18.105469 C 23.660156 18.164062 23.9375 18.246094 24.210938 18.359375 C 24.480469 18.472656 24.738281 18.609375 24.984375 18.773438 C 25.226562 18.9375 25.453125 19.121094 25.660156 19.328125 C 25.871094 19.539062 26.054688 19.761719 26.21875 20.007812 C 26.382812 20.253906 26.519531 20.511719 26.632812 20.78125 C 26.746094 21.054688 26.828125 21.332031 26.886719 21.621094 C 26.945312 21.910156 26.972656 22.199219 26.972656 22.496094 Z M 26.972656 22.496094 " fill-opacity="1" fill-rule="nonzero"/><g clip-path="url(#c688519ec3)"><path fill="#000000" d="M 11.058594 18.515625 L 17.832031 18.515625 C 18.957031 17.199219 20.628906 16.359375 22.496094 16.359375 C 24.363281 16.359375 26.039062 17.199219 27.164062 18.515625 L 33.933594 18.515625 L 33.933594 17.523438 C 33.933594 13.949219 31.039062 11.058594 27.46875 11.058594 L 17.523438 11.058594 C 13.953125 11.058594 11.058594 13.949219 11.058594 17.523438 Z M 29.128906 14.539062 C 29.859375 14.539062 30.453125 15.132812 30.453125 15.863281 C 30.453125 16.597656 29.859375 17.191406 29.128906 17.191406 C 28.394531 17.191406 27.800781 16.597656 27.800781 15.863281 C 27.800781 15.132812 28.394531 14.539062 29.128906 14.539062 Z M 29.128906 14.539062 " fill-opacity="1" fill-rule="evenodd"/></g></svg>