<svg xmlns="http://www.w3.org/2000/svg" xmlns:xlink="http://www.w3.org/1999/xlink" width="60" zoomAndPan="magnify" viewBox="0 0 45 44.999999" height="60" preserveAspectRatio="xMidYMid meet" version="1.0"><defs><clipPath id="122d61dfac"><path d="M 0.417969 0.417969 L 44.582031 0.417969 L 44.582031 44.582031 L 0.417969 44.582031 Z M 0.417969 0.417969 " clip-rule="nonzero"/></clipPath><clipPath id="b461a34cb2"><path d="M 22.5 0.417969 C 10.304688 0.417969 0.417969 10.304688 0.417969 22.5 C 0.417969 34.695312 10.304688 44.582031 22.5 44.582031 C 34.695312 44.582031 44.582031 34.695312 44.582031 22.5 C 44.582031 10.304688 34.695312 0.417969 22.5 0.417969 Z M 22.5 0.417969 " clip-rule="nonzero"/></clipPath><clipPath id="b5d7ae859d"><path d="M 16.0625 8.875 L 28.8125 8.875 L 28.8125 35.875 L 16.0625 35.875 Z M 16.0625 8.875 " clip-rule="nonzero"/></clipPath></defs><g clip-path="url(#122d61dfac)"><g clip-path="url(#b461a34cb2)"><path fill="#ffffff" d="M 0.417969 0.417969 L 44.582031 0.417969 L 44.582031 44.582031 L 0.417969 44.582031 Z M 0.417969 0.417969 " fill-opacity="1" fill-rule="nonzero"/></g></g><g clip-path="url(#b5d7ae859d)"><path fill="#151515" d="M 25.960938 13.398438 L 28.929688 13.398438 L 28.929688 8.921875 L 25.136719 8.921875 L 25.136719 8.941406 C 20.15625 9.121094 19.128906 11.914062 19.042969 14.863281 L 19.03125 14.863281 L 19.03125 17.96875 L 16.0625 17.96875 L 16.0625 22.453125 L 19.03125 22.453125 L 19.03125 36.074219 L 24.355469 36.074219 L 24.355469 22.453125 L 28.175781 22.453125 L 28.929688 17.96875 L 24.355469 17.96875 L 24.355469 15.191406 C 24.355469 14.203125 25.019531 13.398438 25.960938 13.398438 Z M 25.960938 13.398438 " fill-opacity="1" fill-rule="nonzero"/></g></svg>